<svg id="Layer_1" enable-background="new 0 0 512 512" height="512" viewBox="0 0 512 512" width="512" xmlns="http://www.w3.org/2000/svg"><g><g><path clip-rule="evenodd" d="m344.106 130.719c83.338-161.546-454.243-155.41-323.506 18.468v219.975c0 6.724 5.495 12.185 12.195 12.185h146.752c0-11.216 139.082-215.571 164.559-250.628z" fill="#db885e" fill-rule="evenodd"/></g><g><path clip-rule="evenodd" d="m179.547 265.811c-60.564-80.597 22.421-125.138 120.628-133.682l3.438-4.58c5.907-7.839 16.338-23.695 12.548-34.323-4.819-13.536-29.121-24.194-41.346-28.51-30.326-10.776-66.235-14.71-98.295-14.71s-67.969 3.934-98.324 14.71c-12.224 4.316-36.497 14.974-41.316 28.51-3.82 10.629 6.641 26.484 12.518 34.323l7.229 9.601v207.232c0 1.791 1.44 3.23 3.232 3.23h119.688z" fill="#f8d2ab" fill-rule="evenodd"/></g><g><path clip-rule="evenodd" d="m491.417 265.811c66-87.82-38.466-132.831-147.31-135.092-14.693-.323-29.474.147-43.932 1.409-98.207 8.544-181.192 53.085-120.628 133.682v81.801 33.736 104.438c0 6.724 5.495 12.214 12.224 12.214h287.421c6.729 0 12.224-5.491 12.224-12.214v-219.974z" fill="#db885e" fill-rule="evenodd"/></g><g><path clip-rule="evenodd" d="m462.589 244.171c5.877-7.81 16.338-23.665 12.548-34.323-4.849-13.536-29.121-24.164-41.346-28.51-30.326-10.746-66.265-14.71-98.324-14.71s-67.969 3.964-98.295 14.71c-12.224 4.345-36.497 14.974-41.346 28.51-3.791 10.658 6.671 26.513 12.548 34.323l7.229 9.631v187.325 10.335 9.572c0 1.762 1.44 3.2 3.203 3.2h233.351c1.763 0 3.203-1.439 3.203-3.2v-9.572-10.335-187.325z" fill="#f8d2ab" fill-rule="evenodd"/></g><g><path clip-rule="evenodd" d="m179.547 347.611v-81.801c-12.224-16.296-18.601-31.094-20.188-44.424-4.143 9.953-8.492 19.966-13.106 30.037-15.956 34.911-33.323 67.296-51.219 96.188z" fill="#ffbb8b" fill-rule="evenodd"/></g><g><path clip-rule="evenodd" d="m179.547 381.347v-33.736h-84.513c-7.346 11.862-14.781 23.137-22.245 33.736z" fill="#c57142" fill-rule="evenodd"/></g><g><path clip-rule="evenodd" d="m177.108 174.908c24.743-24.076 71.819-38.317 123.067-42.779l3.438-4.58c5.907-7.839 16.338-23.695 12.548-34.323-4.819-13.536-29.121-24.194-41.346-28.51-20.746-7.37-44.108-11.539-67.029-13.448-4.525 36.084-14.869 78.394-30.678 123.64z" fill="#ffbb8b" fill-rule="evenodd"/></g><g><path clip-rule="evenodd" d="m344.106 130.719c35.733-69.293-42.756-107.727-133.734-115.331-.118 11.069-.999 23.078-2.586 35.88 22.921 1.908 46.282 6.078 67.029 13.448 12.224 4.316 36.526 14.974 41.346 28.51 3.791 10.629-6.641 26.484-12.548 34.323l-3.438 4.58c14.458-1.263 29.239-1.733 43.931-1.41z" fill="#c57142" fill-rule="evenodd"/></g><g><path clip-rule="evenodd" d="m455.361 441.127v-187.325l7.229-9.631c5.877-7.81 16.338-23.665 12.548-34.323-4.849-13.536-29.121-24.164-41.346-28.51-10.608-3.758-21.922-6.694-33.5-8.926-9.227 51.881-28.915 113.922-58.125 177.842-19.306 42.28-40.729 80.861-62.621 113.981h172.611c1.763 0 3.203-1.439 3.203-3.2v-9.572-10.336z" fill="#ffbb8b" fill-rule="evenodd"/></g><g><path clip-rule="evenodd" d="m491.417 485.786v-219.975c53.335-70.966-4.643-113.981-86.306-129.072-.97 11.216-2.586 23.166-4.819 35.674 11.578 2.231 22.891 5.168 33.5 8.926 12.224 4.345 36.497 14.974 41.346 28.51 3.791 10.658-6.671 26.513-12.548 34.323l-7.229 9.631v187.325 10.335 9.572c0 1.762-1.44 3.2-3.203 3.2h-172.612c-7.905 12.009-15.898 23.284-23.861 33.766h223.507c6.73-.001 12.225-5.492 12.225-12.215z" fill="#c57142" fill-rule="evenodd"/></g><g><path d="m230.178 117.446h-.147c-4.267 0-7.726-3.456-7.726-7.72s3.459-7.72 7.726-7.72h.147c4.267 0 7.726 3.456 7.726 7.72s-3.458 7.72-7.726 7.72z" fill="#c57142"/></g><g><path d="m115.927 130.6h-.147c-4.267 0-7.726-3.456-7.726-7.72s3.459-7.72 7.726-7.72h.147c4.267 0 7.726 3.456 7.726 7.72s-3.459 7.72-7.726 7.72z" fill="#c57142"/></g><g><path d="m172.288 136.559h-.147c-4.267 0-7.726-3.456-7.726-7.72s3.459-7.72 7.726-7.72h.147c4.267 0 7.726 3.456 7.726 7.72.001 4.265-3.458 7.72-7.726 7.72z" fill="#c57142"/></g><g><path d="m118.895 205.383h-.147c-4.267 0-7.726-3.456-7.726-7.72s3.459-7.72 7.726-7.72h.147c4.267 0 7.726 3.456 7.726 7.72s-3.459 7.72-7.726 7.72z" fill="#c57142"/></g><g><path d="m392.211 256.794h-.147c-4.267 0-7.726-3.456-7.726-7.72s3.459-7.72 7.726-7.72h.147c4.267 0 7.726 3.456 7.726 7.72s-3.459 7.72-7.726 7.72z" fill="#c57142"/></g><g><path d="m296.267 255.18h-.177c-4.267 0-7.726-3.456-7.726-7.72s3.459-7.72 7.726-7.72h.177c4.267 0 7.726 3.456 7.726 7.72s-3.459 7.72-7.726 7.72z" fill="#c57142"/></g><g><path d="m393.386 332.253h-.147c-4.267 0-7.726-3.456-7.726-7.72s3.459-7.72 7.726-7.72h.147c4.267 0 7.726 3.456 7.726 7.72.001 4.264-3.458 7.72-7.726 7.72z" fill="#c57142"/></g><g><path d="m324.506 348.959h-.147c-4.267 0-7.726-3.456-7.726-7.72s3.459-7.72 7.726-7.72h.147c4.267 0 7.726 3.456 7.726 7.72s-3.459 7.72-7.726 7.72z" fill="#c57142"/></g><g><path d="m347.75 287.947h-.147c-4.267 0-7.726-3.456-7.726-7.72s3.459-7.72 7.726-7.72h.147c4.267 0 7.726 3.456 7.726 7.72s-3.458 7.72-7.726 7.72z" fill="#c57142"/></g><g><path d="m277.724 310.789h-.177c-4.267 0-7.726-3.456-7.726-7.72s3.459-7.72 7.726-7.72h.177c4.267 0 7.726 3.456 7.726 7.72.001 4.265-3.458 7.72-7.726 7.72z" fill="#c57142"/></g><g><path d="m289.302 401.634h-.177c-4.267 0-7.726-3.456-7.726-7.72s3.459-7.72 7.726-7.72h.177c4.267 0 7.726 3.456 7.726 7.72s-3.458 7.72-7.726 7.72z" fill="#c57142"/></g><g><path d="m382.308 397.23h-.147c-4.267 0-7.726-3.456-7.726-7.72s3.459-7.72 7.726-7.72h.147c4.267 0 7.726 3.456 7.726 7.72s-3.459 7.72-7.726 7.72z" fill="#c57142"/></g><g><path d="m114.781 281.723h-.176c-4.267 0-7.726-3.456-7.726-7.72s3.459-7.72 7.726-7.72h.176c4.267 0 7.726 3.456 7.726 7.72s-3.459 7.72-7.726 7.72z" fill="#c57142"/></g></g></svg>